<svg xmlns="http://www.w3.org/2000/svg" width="160" height="160" viewBox="0 0 160 160">
  <metadata id="status-refresh">2026-07-16-green-status-refresh</metadata>

  <rect x="4" y="4" width="152" height="152" rx="32" fill="#F1F8FA" stroke="#C8E9EF" stroke-width="4"/>
  <g fill="none" stroke="#124E78" stroke-width="7" stroke-linecap="round" stroke-linejoin="round"><circle cx="40" cy="42" r="5"/><circle cx="72" cy="36" r="5"/><circle cx="112" cy="50" r="5"/>
  <circle cx="52" cy="78" r="5"/><circle cx="92" cy="78" r="5"/><circle cx="124" cy="90" r="5"/>
  <circle cx="38" cy="118" r="5"/><circle cx="78" cy="120" r="5"/>
  <path d="M34 58l24-10M72 54l28-4M54 94l26-8M94 96l22-2M42 132l28-4"/>
  <path d="M56 44l8 4-5 8M98 47l8 4-5 8M78 83l8 4-5 8M114 91l8 4-5 8M68 126l8 4-5 8"/></g></svg>
